<svg width="15" height="17" viewBox="0 0 15 17" fill="none" xmlns="http://www.w3.org/2000/svg">
<path d="M6.25 2C6.15625 2 6.09375 2.0625 6.03125 2.125L5.4375 3H9.96875L9.375 2.125C9.34375 2.0625 9.25 2 9.15625 2H6.25ZM11.7812 3H12.1875H13.7188H13.9688C14.375 3 14.7188 3.34375 14.7188 3.75C14.7188 4.1875 14.375 4.5 13.9688 4.5H13.5938L12.8438 14.6562C12.75 15.7188 11.9062 16.5 10.8438 16.5H4.5625C3.5 16.5 2.65625 15.7188 2.5625 14.6562L1.8125 4.5H1.46875C1.03125 4.5 0.71875 4.1875 0.71875 3.75C0.71875 3.34375 1.03125 3 1.46875 3H1.71875H3.21875H3.625L4.78125 1.28125C5.09375 0.8125 5.65625 0.5 6.25 0.5H9.15625C9.75 0.5 10.3125 0.8125 10.625 1.28125L11.7812 3ZM12.0938 4.5H3.3125L4.0625 14.5625C4.09375 14.8125 4.3125 15 4.5625 15H10.8438C11.0938 15 11.3125 14.8125 11.3438 14.5625L12.0938 4.5Z" fill="white"/>
</svg>
