<svg width="17" height="17" viewBox="0 0 17 17" fill="none" xmlns="http://www.w3.org/2000/svg">
<path d="M1.84375 11.7812C1.9375 11.4688 2.09375 11.1562 2.28125 10.9062V10.875H2.3125C2.375 10.7812 2.46875 10.6875 2.53125 10.625L12.0312 1.125C12.8125 0.34375 14.0938 0.34375 14.875 1.125L16.0938 2.34375C16.1875 2.4375 16.2812 2.5625 16.3438 2.65625C16.875 3.4375 16.7812 4.5 16.0938 5.1875L6.59375 14.6875C6.5625 14.7188 6.5 14.75 6.46875 14.8125C6.4375 14.8438 6.375 14.875 6.34375 14.9062V14.9375H6.3125C6.0625 15.125 5.75 15.2812 5.4375 15.375L3 16.0938L1.65625 16.5C1.40625 16.5625 1.125 16.5 0.9375 16.2812C0.71875 16.0938 0.65625 15.8125 0.75 15.5625L1.125 14.2188L1.84375 11.7812ZM12.6875 6.46875L10.75 4.53125L4.9375 10.3438L5.3125 11.9062L6.875 12.2812L12.6875 6.46875ZM3.75 11.7188L3.375 11.9688C3.34375 12.0312 3.3125 12.125 3.28125 12.2188L3.0625 12.9375L2.5625 14.6562L4.28125 14.1562L5 13.9375C5.09375 13.9062 5.1875 13.875 5.25 13.8438L5.5 13.5L4.53125 13.25C4.25 13.1875 4.03125 12.9688 3.96875 12.6875L3.75 11.7188ZM10.5625 7.34375L7.5625 10.3438C7.375 10.5312 7.03125 10.5312 6.84375 10.3438C6.65625 10.1562 6.65625 9.84375 6.84375 9.65625L9.84375 6.65625C10.0312 6.4375 10.375 6.4375 10.5625 6.65625C10.75 6.84375 10.75 7.15625 10.5625 7.34375Z" fill="white"/>
</svg>
