<svg xmlns="http://www.w3.org/2000/svg" xmlns:xlink="http://www.w3.org/1999/xlink" viewBox="0,0,256,256" width="192px" height="192px"><g fill-opacity="0" fill="#dddddd" fill-rule="nonzero" stroke="none" stroke-width="1" stroke-linecap="butt" stroke-linejoin="miter" stroke-miterlimit="10" stroke-dasharray="" stroke-dashoffset="0" font-family="none" font-weight="none" font-size="none" text-anchor="none" style="mix-blend-mode: normal"><path d="M0,256v-256h256v256z" id="bgRectangle"></path></g><g fill="#cccccc" fill-rule="nonzero" stroke="none" stroke-width="1" stroke-linecap="butt" stroke-linejoin="miter" stroke-miterlimit="10" stroke-dasharray="" stroke-dashoffset="0" font-family="none" font-weight="none" font-size="none" text-anchor="none" style="mix-blend-mode: normal"><g transform="scale(10.66667,10.66667)"><path d="M12,0c-0.6,0 -1,0.4 -1,1v1c0,0.6 0.4,1 1,1c0.6,0 1,-0.4 1,-1v-1c0,-0.6 -0.4,-1 -1,-1zM4.19922,3.19922c-0.25,0 -0.49922,0.10078 -0.69922,0.30078c-0.4,0.4 -0.4,1.00039 0,1.40039l0.69922,0.69922c0.4,0.4 1.00039,0.4 1.40039,0c0.4,-0.4 0.4,-1.00039 0,-1.40039l-0.69922,-0.69922c-0.2,-0.2 -0.45117,-0.30078 -0.70117,-0.30078zM19.80078,3.19922c-0.25,0 -0.50117,0.10078 -0.70117,0.30078l-0.69922,0.69922c-0.4,0.4 -0.4,1.00039 0,1.40039c0.4,0.4 1.00039,0.4 1.40039,0l0.69922,-0.69922c0.4,-0.4 0.4,-1.00039 0,-1.40039c-0.2,-0.2 -0.44922,-0.30078 -0.69922,-0.30078zM12,5c-3.86599,0 -7,3.13401 -7,7c0,3.86599 3.13401,7 7,7c3.86599,0 7,-3.13401 7,-7c0,-3.86599 -3.13401,-7 -7,-7zM1,11c-0.6,0 -1,0.4 -1,1c0,0.6 0.4,1 1,1h1c0.6,0 1,-0.4 1,-1c0,-0.6 -0.4,-1 -1,-1zM22,11c-0.6,0 -1,0.4 -1,1c0,0.6 0.4,1 1,1h1c0.6,0 1,-0.4 1,-1c0,-0.6 -0.4,-1 -1,-1zM4.90039,18.09961c-0.25,0 -0.50117,0.10078 -0.70117,0.30078l-0.69922,0.69922c-0.4,0.4 -0.4,1.00039 0,1.40039c0.4,0.4 1.00039,0.4 1.40039,0l0.69922,-0.69922c0.4,-0.4 0.4,-1.00039 0,-1.40039c-0.2,-0.2 -0.44922,-0.30078 -0.69922,-0.30078zM19.09961,18.09961c-0.25,0 -0.49922,0.10078 -0.69922,0.30078c-0.4,0.4 -0.4,1.00039 0,1.40039l0.69922,0.69922c0.4,0.4 1.00039,0.4 1.40039,0c0.4,-0.4 0.4,-1.00039 0,-1.40039l-0.69922,-0.69922c-0.2,-0.2 -0.45117,-0.30078 -0.70117,-0.30078zM12,21c-0.6,0 -1,0.4 -1,1v1c0,0.6 0.4,1 1,1c0.6,0 1,-0.4 1,-1v-1c0,-0.6 -0.4,-1 -1,-1z"></path></g></g></svg>